<?xml version="1.0" encoding="UTF-8"?>
<svg viewBox="0 0 88 88" version="1.1" xmlns="http://www.w3.org/2000/svg" xmlns:xlink="http://www.w3.org/1999/xlink">
    <g id="Page-1" stroke="none" stroke-width="1" fill-rule="evenodd">
        <g id="star" fill="#000000" fill-rule="nonzero">
            <path d="M42.03126,1.65001 L30,31 L1.62488,42.56932 C0.693801662,42.7629316 0.0272702558,43.5746464 0.0272702558,44.51492 C0.0272702558,45.4551936 0.693801662,46.2669084 1.62488,46.46052 L30,55 L42.03126,86.39172 C42.22718,87.3118403 43.0485561,87.9705254 44.00002,87.9705254 C44.9514839,87.9705254 45.77286,87.3118403 45.96878,86.39172 L58,55 L86.37512,46.46032 C87.3061983,46.2667084 87.9727297,45.4549936 87.9727297,44.51472 C87.9727297,43.5744464 87.3061983,42.7627316 86.37512,42.56912 L58,31 L45.96878,1.64977 C45.7726557,0.620500129 44.8021761,-0.0819117519 43.75002,0.04388 C42.885559,0.154920211 42.1916404,0.803269575 42.03126,1.65001 Z" id="Shape"></path>
        </g>
    </g>
</svg>
