<svg xmlns="http://www.w3.org/2000/svg" xmlns:xlink="http://www.w3.org/1999/xlink" version="1.1" x="0px" y="0px" viewBox="0 0 200 200" enable-background="new 0 0 90 90" xml:space="preserve" fill='#ccc'>
<path d="M66.7,80.4H23.3c-1,0-1.9-0.6-2.4-1.5s-0.4-2,0.2-2.8l9.1-12.5c0.2-0.3,0.1-0.6,0.1-0.7s-0.2-0.4-0.6-0.4h-3  c-1,0-2-0.6-2.4-1.5s-0.3-2,0.3-2.8l8.5-11c0.2-0.3,0.1-0.6,0.1-0.7c-0.1-0.1-0.2-0.4-0.6-0.4c-1,0-1.9-0.6-2.4-1.5s-0.4-2,0.2-2.8  l12.5-17.6c0.5-0.7,1.3-1.1,2.2-1.1s1.7,0.4,2.2,1.1l12.5,17.6c0.6,0.8,0.7,1.9,0.2,2.8c-0.5,0.9-1.4,1.5-2.4,1.5  c-0.4,0-0.6,0.3-0.6,0.4c-0.1,0.1-0.2,0.4,0.1,0.7l8.5,11c0.6,0.8,0.7,1.9,0.3,2.8s-1.4,1.5-2.4,1.5h-3c-0.4,0-0.6,0.3-0.6,0.4  s-0.2,0.4,0.1,0.7l9.1,12.5c0.6,0.8,0.7,1.9,0.2,2.8S67.7,80.4,66.7,80.4z M45,25.1c-0.1,0-0.4,0-0.6,0.3L31.9,43  c-0.2,0.3-0.1,0.6,0,0.7c0.1,0.1,0.2,0.4,0.6,0.4c1,0,2,0.6,2.4,1.5c0.5,0.9,0.3,2-0.3,2.8l-8.5,11c-0.2,0.3-0.1,0.6-0.1,0.7  s0.2,0.4,0.6,0.4h3c1,0,1.9,0.6,2.4,1.5c0.5,0.9,0.4,2-0.2,2.8l-9.1,12.5c-0.2,0.3-0.1,0.6-0.1,0.7c0.1,0.1,0.2,0.4,0.6,0.4h43.3  c0.4,0,0.6-0.3,0.6-0.4c0.1-0.1,0.2-0.4-0.1-0.7l-9.1-12.5c-0.6-0.8-0.7-1.9-0.2-2.8c0.5-0.9,1.4-1.5,2.4-1.5h3  c0.4,0,0.6-0.3,0.6-0.4s0.2-0.4-0.1-0.7l-8.5-11c-0.6-0.8-0.7-1.9-0.3-2.8c0.5-0.9,1.4-1.5,2.4-1.5c0.4,0,0.5-0.3,0.6-0.4  c0.1-0.1,0.2-0.4,0-0.7L45.6,25.4C45.4,25.1,45.1,25.1,45,25.1z"/><path d="M48,88h-6c-1.5,0-2.7-1.2-2.7-2.7v-5.9h2v5.9c0,0.4,0.3,0.7,0.7,0.7h6c0.4,0,0.7-0.3,0.7-0.7v-5.9h2v5.9  C50.7,86.8,49.5,88,48,88z"/><path d="M57.9,42.1c-10.5,0-21.6-2.9-21.6-8.4h2c0,3,8.1,6.4,19.6,6.4V42.1z"/><path d="M28,56.4v-2c13.2,0,24-5.9,24-13.3h2C54,49.7,42.6,56.4,28,56.4z"/><path d="M62.1,69.6c-16.5,0-29.4-6.2-29.4-14.2h2c0,6.6,12.5,12.2,27.4,12.2V69.6z"/><path d="M33.7,80.4v-2c8.5,0,15.4-5.1,15.4-11.3h2C51.1,74.4,43.3,80.4,33.7,80.4z"/><circle cx="39.9" cy="43" r="1.1"/><circle cx="45.3" cy="33" r="1"/><circle cx="48.9" cy="56.2" r="1.3"/><circle cx="32.2" cy="69.5" r="0.9"/><circle cx="56.9" cy="72.7" r="1.5"/><path d="M50.1,23c-0.4,0-0.9-0.1-1.2-0.3l-3.5-1.8c-0.2-0.1-0.4-0.1-0.6,0l-3.5,1.8c-1.1,0.6-2.5,0.3-3.3-0.7  c-0.5-0.6-0.7-1.4-0.6-2.2L38,16c0-0.2,0-0.4-0.2-0.6l-2.8-2.8c-0.7-0.7-1-1.8-0.7-2.8c0.3-1,1.1-1.7,2.2-1.8l3.9-0.6  c0.2,0,0.4-0.2,0.5-0.4l1.7-3.5C43,2.6,44,2,45,2s2,0.6,2.4,1.5l1.8,3.5c0.1,0.2,0.3,0.3,0.5,0.4L53.6,8c1,0.1,1.8,0.8,2.2,1.8  c0.3,1,0.1,2-0.7,2.8l-2.8,2.8C52.1,15.5,52,15.7,52,16l0.7,3.9c0.1,0.8-0.1,1.6-0.6,2.2C51.6,22.7,50.9,23,50.1,23z M45,18.8  c0.4,0,0.9,0.1,1.2,0.3l3.5,1.8c0.3,0.2,0.6,0.1,0.8-0.2c0.1-0.1,0.2-0.3,0.1-0.5l-0.7-3.9c-0.1-0.9,0.1-1.8,0.8-2.4l2.8-2.8  c0.3-0.3,0.2-0.6,0.2-0.7c0-0.1-0.2-0.4-0.6-0.5l-3.9-0.6c-0.9-0.1-1.6-0.7-2-1.5l-1.8-3.5C45.4,4.1,45.1,4,45,4s-0.4,0-0.6,0.4  L42.6,8c-0.4,0.8-1.1,1.3-2,1.5L36.7,10c-0.4,0.1-0.5,0.3-0.6,0.5c0,0.1-0.1,0.4,0.2,0.7l2.8,2.8c0.6,0.6,0.9,1.5,0.8,2.4l-0.7,3.9  c0,0.3,0.1,0.4,0.1,0.6c0.2,0.2,0.6,0.3,0.8,0.2l3.5-1.8C44.1,18.9,44.6,18.8,45,18.8z"/></svg>
